<svg width="22" height="13" viewBox="0 0 22 13" fill="none" xmlns="http://www.w3.org/2000/svg">
<path fill-rule="evenodd" clip-rule="evenodd" d="M0.5 6.5C0.5 6.33424 0.579018 6.17526 0.71967 6.05805C0.860322 5.94084 1.05109 5.875 1.25 5.875H18.9395L14.219 1.9425C14.0782 1.82514 13.9991 1.66597 13.9991 1.5C13.9991 1.33403 14.0782 1.17485 14.219 1.0575C14.3598 0.940138 14.5508 0.874207 14.75 0.874207C14.9492 0.874207 15.1402 0.940138 15.281 1.0575L21.281 6.0575C21.3508 6.11555 21.4063 6.18452 21.4441 6.26045C21.4819 6.33639 21.5013 6.41779 21.5013 6.5C21.5013 6.5822 21.4819 6.66361 21.4441 6.73954C21.4063 6.81547 21.3508 6.88444 21.281 6.9425L15.281 11.9425C15.1402 12.0599 14.9492 12.1258 14.75 12.1258C14.5508 12.1258 14.3598 12.0599 14.219 11.9425C14.0782 11.8251 13.9991 11.666 13.9991 11.5C13.9991 11.334 14.0782 11.1749 14.219 11.0575L18.9395 7.125H1.25C1.05109 7.125 0.860322 7.05915 0.71967 6.94194C0.579018 6.82473 0.5 6.66576 0.5 6.5Z" fill="#000"/>
</svg>
